<svg width="25" height="25" viewBox="0 0 25 25" fill="none" xmlns="http://www.w3.org/2000/svg">
<g clip-path="url(#clip0_757_617)">
<path d="M19.5 4.75195H5.5C4.70435 4.75195 3.94129 5.06802 3.37868 5.63063C2.81607 6.19324 2.5 6.9563 2.5 7.75195V17.752C2.5 18.5476 2.81607 19.3107 3.37868 19.8733C3.94129 20.4359 4.70435 20.752 5.5 20.752H19.5C20.2956 20.752 21.0587 20.4359 21.6213 19.8733C22.1839 19.3107 22.5 18.5476 22.5 17.752V7.75195C22.5 6.9563 22.1839 6.19324 21.6213 5.63063C21.0587 5.06802 20.2956 4.75195 19.5 4.75195ZM19.5 6.75195L13 11.222C12.848 11.3097 12.6755 11.3559 12.5 11.3559C12.3245 11.3559 12.152 11.3097 12 11.222L5.5 6.75195H19.5Z" fill="#C2C2C2"/>
</g>
<defs>
<clipPath id="clip0_757_617">
<rect width="24" height="24" fill="white" transform="translate(0.5 0.751953)"/>
</clipPath>
</defs>
</svg>
