<svg width="25" height="25" viewBox="0 0 25 25" fill="none" xmlns="http://www.w3.org/2000/svg">
<path d="M8.47801 4.75195C8.11294 4.75193 7.7521 4.8302 7.41986 4.98149C7.08761 5.13278 6.79167 5.35356 6.55201 5.62895C4.73301 7.45195 4.19901 9.50295 4.65301 11.566C5.09301 13.561 6.43101 15.459 8.10901 17.138C9.78901 18.817 11.686 20.156 13.679 20.597C15.741 21.053 17.794 20.524 19.619 18.712C19.8956 18.4721 20.1174 18.1756 20.2694 17.8426C20.4215 17.5096 20.5002 17.1478 20.5003 16.7817C20.5004 16.4156 20.4219 16.0538 20.27 15.7207C20.1181 15.3875 19.8964 15.091 19.62 14.851L18.41 13.641C17.9058 13.1369 17.222 12.8538 16.509 12.8538C15.796 12.8538 15.1123 13.1369 14.608 13.641L13.991 14.259C13.9162 14.3338 13.8273 14.3932 13.7295 14.4337C13.6317 14.4742 13.5269 14.4951 13.421 14.4951C13.3151 14.4951 13.2103 14.4742 13.1125 14.4337C13.0147 14.3932 12.9259 14.3338 12.851 14.259L10.997 12.404C10.8461 12.2527 10.7613 12.0477 10.7613 11.834C10.7613 11.6202 10.8461 11.4152 10.997 11.264L11.615 10.644C12.1186 10.1393 12.4014 9.45542 12.4014 8.74245C12.4014 8.02949 12.1186 7.34564 11.615 6.84095L10.405 5.62995C10.1652 5.35436 9.86917 5.13338 9.53675 4.98192C9.20433 4.83046 8.8433 4.75204 8.47801 4.75195Z" fill="#C2C2C2"/>
</svg>
