<svg width="67" height="40" viewBox="0 0 67 40" fill="none" xmlns="http://www.w3.org/2000/svg">
<g clip-path="url(#clip0_757_721)">
<rect width="18" height="18" transform="matrix(1 0 0 -1 0 29)" fill="white"/>
<path d="M17.0156 24.8867L14.959 22.9004C14.748 22.6777 14.4902 22.5664 14.1855 22.5664C13.8808 22.5664 13.6172 22.6777 13.3945 22.9004L11.8476 24.4473C11.6719 24.623 11.458 24.7109 11.206 24.7109C10.9541 24.7109 10.7402 24.623 10.5644 24.4473L4.86913 18.541C4.70506 18.377 4.6201 18.1777 4.61424 17.9434C4.60838 17.709 4.68749 17.5039 4.85155 17.3281L6.2578 15.7461C6.46874 15.5352 6.5742 15.2773 6.5742 14.9727C6.5742 14.668 6.46874 14.4102 6.2578 14.1992L4.28905 12.125C4.07811 11.9141 3.8203 11.8086 3.51561 11.8086C3.21092 11.8086 2.94725 11.9141 2.72459 12.125L1.00194 13.8477C0.744126 14.1055 0.547837 14.4014 0.413071 14.7354C0.278306 15.0693 0.228501 15.4121 0.263657 15.7637C0.416001 17.2871 0.873032 18.8105 1.63475 20.334C2.39647 21.8574 3.37792 23.2373 4.57909 24.4736C5.78026 25.71 7.166 26.7324 8.73631 27.541C10.3066 28.3496 11.9765 28.8125 13.7461 28.9297C13.9922 28.9414 14.2236 28.9004 14.4404 28.8066C14.6572 28.7129 14.8535 28.584 15.0293 28.4199L17.0156 26.4336C17.2265 26.2227 17.332 25.9648 17.332 25.6602C17.332 25.3555 17.2265 25.0977 17.0156 24.8867Z" fill="#393939"/>
</g>
<g clip-path="url(#clip1_757_721)">
<path d="M65.7565 27.2773C65.733 26.6914 65.5455 26.1729 65.194 25.7217C64.8424 25.2705 64.3854 24.9629 63.8229 24.7988L61.6432 24.166C61.069 23.9902 60.483 23.8613 59.8854 23.7793C59.2994 23.6973 58.7076 23.6562 58.11 23.6562C57.5123 23.6562 56.9147 23.6973 56.317 23.7793C55.7311 23.8613 55.151 23.9902 54.5768 24.166L52.3795 24.7988C51.8287 24.9629 51.3746 25.2705 51.0172 25.7217C50.6598 26.1729 50.4694 26.6855 50.4459 27.2598C50.4342 27.6113 50.4254 27.957 50.4196 28.2969C50.4137 28.6367 50.4108 28.9297 50.4108 29.1758H65.8092C65.8092 28.9531 65.8033 28.6689 65.7916 28.3232C65.7799 27.9775 65.7682 27.6289 65.7565 27.2773ZM58.11 20.9316C58.6608 20.9316 59.1998 20.8027 59.7272 20.5449C60.2545 20.2871 60.7233 19.9326 61.1334 19.4814C61.5436 19.0303 61.8776 18.5059 62.1354 17.9082C62.3815 17.3105 62.5045 16.666 62.5045 15.9746C62.5045 15.2832 62.3815 14.668 62.1354 14.1289C61.8776 13.5781 61.5436 13.1152 61.1334 12.7402C60.7233 12.3652 60.2545 12.0781 59.7272 11.8789C59.1998 11.6797 58.6608 11.5801 58.11 11.5801C57.5592 11.5801 57.0201 11.6797 56.4928 11.8789C55.9655 12.0781 55.4967 12.3652 55.0865 12.7402C54.6764 13.1152 54.3424 13.5781 54.0846 14.1289C53.8268 14.668 53.6979 15.2832 53.6979 15.9746C53.6979 16.666 53.8268 17.3105 54.0846 17.9082C54.3424 18.5059 54.6764 19.0303 55.0865 19.4814C55.4967 19.9326 55.9655 20.2871 56.4928 20.5449C57.0201 20.8027 57.5592 20.9316 58.11 20.9316Z" fill="#393939"/>
</g>
<line x1="34.5" y1="2.18557e-08" x2="34.5" y2="40" stroke="#DCDCDC"/>
<defs>
<clipPath id="clip0_757_721">
<rect width="18" height="18" fill="white" transform="matrix(1 0 0 -1 0 29)"/>
</clipPath>
<clipPath id="clip1_757_721">
<rect width="16.22" height="18" fill="white" transform="matrix(1 0 0 -1 50 29)"/>
</clipPath>
</defs>
</svg>
