<svg width="194" height="42" viewBox="0 0 194 42" fill="none" xmlns="http://www.w3.org/2000/svg">
<path d="M18.3707 14.1255L13.2885 33.5784H0.872437L3.39005 24.0083L18.3707 14.1255Z" fill="#072654"/>
<path d="M44.7979 7.94824C47.7065 7.96388 49.755 8.60501 50.9121 9.90291C52.0693 11.2008 52.3508 13.046 51.7096 15.4698C51.2874 17.1274 50.4274 18.6442 49.2233 19.8483C47.9723 21.0993 46.4398 22.0062 44.7354 22.4754C46.0333 22.7725 46.8308 23.6951 47.081 25.2745L47.1279 25.6185L48.0661 33.5779H42.2803L41.3108 25.0086C41.2951 24.7272 41.217 24.4457 41.0762 24.1955C40.9355 23.9453 40.7322 23.742 40.4976 23.5856C40.0129 23.3354 39.4812 23.2103 38.9339 23.1947H38.6055H35.0402L32.3193 33.5623H26.9088L33.6328 7.94824H44.7979ZM193.025 14.6567L186.144 24.5708L178.028 36.3301L177.966 36.3926L176.152 39.0197L176.089 39.1135L176.011 39.2386L174.447 41.4904H169.068L175.354 32.624L172.508 15.2822H178.091L179.498 26.588L186.316 16.9085L186.41 16.7677L186.519 16.6114L186.629 16.4706L187.473 14.6723H193.025V14.6567ZM145.362 16.0328C146.394 16.9085 147.066 18.1125 147.301 19.4574C147.582 21.1306 147.457 22.8663 146.973 24.4926C146.519 26.2909 145.753 27.9797 144.689 29.4809C143.72 30.857 142.469 31.9985 141.015 32.8117C139.639 33.5623 138.122 33.9532 136.558 33.9532C135.448 34.0001 134.353 33.7186 133.399 33.1557C132.664 32.7179 132.101 32.0454 131.789 31.2479L131.695 30.9352L128.927 41.4904H123.563L129.052 20.5363L129.083 20.4425L129.099 20.3487L130.444 15.2665H135.682L134.791 18.2064L134.775 18.3315C135.542 17.2368 136.574 16.3455 137.762 15.7669C138.951 15.1414 140.264 14.8287 141.593 14.8287C142.922 14.7505 144.267 15.1883 145.362 16.0328ZM138.888 18.9413C138.263 18.9257 137.637 19.0508 137.043 19.2853C136.464 19.5199 135.933 19.8796 135.479 20.3174C134.416 21.412 133.681 22.8038 133.352 24.2893C132.883 26.0251 132.915 27.3386 133.384 28.2456C133.853 29.1525 134.744 29.6217 136.073 29.6217C137.34 29.6529 138.56 29.1682 139.482 28.2768C140.514 27.1979 141.234 25.853 141.562 24.3831C142.015 22.6787 141.984 21.3182 141.515 20.3643C141.046 19.4104 140.17 18.9413 138.888 18.9413ZM162.97 15.6262C163.689 16.0797 164.252 16.7521 164.565 17.5496L164.674 17.8467L165.362 15.2509H170.616L165.8 33.5466H160.53L161.234 30.8414C160.436 31.7952 159.436 32.5458 158.31 33.0619C157.215 33.5623 156.042 33.8281 154.854 33.8281C153.478 33.8907 152.102 33.4997 150.976 32.6709C149.944 31.8578 149.256 30.6694 149.037 29.3715C148.755 27.7139 148.849 26.0251 149.334 24.4144C149.803 22.6161 150.585 20.9116 151.664 19.3948C152.649 18.0031 153.916 16.8303 155.385 15.9859C156.73 15.204 158.263 14.7818 159.811 14.7818C160.937 14.7505 162.031 15.032 162.97 15.6262ZM160.249 18.9882C159.608 18.9882 158.966 19.1133 158.388 19.3635C157.794 19.6137 157.262 19.9734 156.808 20.4269C155.761 21.5371 155.01 22.9132 154.682 24.4144C154.244 26.1032 154.244 27.3855 154.744 28.3081C155.229 29.2307 156.136 29.6686 157.481 29.6686C158.106 29.6842 158.732 29.5591 159.326 29.3245C159.92 29.09 160.436 28.7303 160.89 28.2925C161.812 27.3073 162.485 26.1345 162.86 24.821L162.985 24.3362C163.454 22.6005 163.439 21.2713 162.938 20.38C162.454 19.4574 161.562 18.9882 160.249 18.9882ZM127.739 15.0633L128.083 15.204L126.738 20.1923C125.972 19.7857 125.127 19.5825 124.283 19.5825C123 19.5355 121.749 19.9578 120.733 20.7553C119.857 21.5059 119.216 22.5066 118.888 23.6013L118.778 24.0235L116.276 33.5779H110.928L115.776 15.2822H121.046L120.358 17.9718C121.014 17.0648 121.859 16.3299 122.813 15.7826C123.876 15.1727 125.065 14.86 126.284 14.86C126.769 14.8287 127.269 14.8912 127.739 15.0633ZM107.989 15.9389C109.177 16.6895 110.037 17.878 110.365 19.2541C110.756 20.9116 110.694 22.663 110.193 24.2893C109.724 26.1345 108.896 27.8546 107.723 29.3245C106.612 30.7475 105.205 31.8734 103.594 32.6397C101.953 33.4059 100.17 33.7968 98.3559 33.7812C96.4482 33.7812 94.8844 33.4059 93.6647 32.6397C92.4606 31.8891 91.6006 30.7006 91.2566 29.3245C90.8813 27.667 90.9438 25.9156 91.4286 24.2893C91.8977 22.4597 92.7265 20.7396 93.8993 19.2541C95.0095 17.8467 96.4325 16.7052 98.0588 15.9389C99.7164 15.1727 101.53 14.7661 103.36 14.7974C104.971 14.7192 106.581 15.1258 107.989 15.9389ZM102.265 18.9257C100.999 18.91 99.7789 19.3948 98.8563 20.2705C97.9025 21.1775 97.1831 22.5066 96.7296 24.2893C95.7914 27.8703 96.6984 29.6529 99.4505 29.6529C100.702 29.6842 101.906 29.1994 102.813 28.3238C103.751 27.4324 104.439 26.0876 104.908 24.2893C105.377 22.5223 105.393 21.1931 104.924 20.2705C104.47 19.3479 103.579 18.9257 102.265 18.9257ZM91.3973 15.2665L90.4591 18.8944L78.6528 29.3245H88.1291L87.0032 33.5935H71.3189L72.3041 29.8249L83.9226 19.5512H75.0875L76.2134 15.2822H91.3973V15.2665ZM64.9232 15.6262C65.6425 16.0797 66.2055 16.7521 66.5182 17.5496L66.6277 17.8467L67.3157 15.2509H72.5855L67.7849 33.5466H62.5151L63.2187 30.8414C62.4212 31.7796 61.4361 32.5302 60.3258 33.0462C59.2156 33.5623 58.0115 33.8281 56.7761 33.8281C55.4001 33.8907 54.0552 33.4841 52.945 32.6709C51.9129 31.8578 51.2249 30.6694 51.006 29.3715C50.7245 27.7139 50.8183 26.0251 51.3031 24.4144C51.7565 22.6161 52.5541 20.9116 53.633 19.3948C54.6182 18.0031 55.8848 16.8303 57.3391 15.9859C58.6839 15.204 60.2164 14.7974 61.7645 14.7974C62.8904 14.7661 63.985 15.0476 64.9232 15.6262ZM62.2179 18.9882C61.5768 18.9882 60.9513 19.1133 60.3571 19.3635C59.7629 19.6137 59.2312 19.9734 58.7777 20.4269C57.7144 21.5371 56.9794 22.9132 56.651 24.4144C56.2132 26.1032 56.2288 27.3855 56.7136 28.3081C57.1984 29.2307 58.1053 29.6686 59.4501 29.6686C60.0756 29.6842 60.7011 29.5591 61.2953 29.3245C61.8739 29.09 62.4212 28.7303 62.8591 28.2925C63.7817 27.323 64.4697 26.1345 64.8294 24.821L64.9545 24.3362C65.408 22.6005 65.3611 21.3026 64.9076 20.38C64.4228 19.4574 63.5159 18.9882 62.2179 18.9882ZM42.8589 12.2172H37.8393L36.0723 18.91H41.0919C42.6712 18.91 43.9222 18.6442 44.7666 18.0969C45.658 17.5183 46.2991 16.6114 46.5337 15.548C46.8464 14.4221 46.7057 13.5621 46.1115 13.0148C45.5172 12.4987 44.4383 12.2172 42.8589 12.2172Z" fill="#072654"/>
<path d="M29.6452 0.00488281L20.8257 33.5783H14.7741L20.7319 10.8416L11.5997 16.862L13.226 10.8729L29.6452 0.00488281Z" fill="#3395FF"/>
</svg>
