<svg width="125" height="90" viewBox="0 0 125 90" fill="none" xmlns="http://www.w3.org/2000/svg">
<g clip-path="url(#clip0_757_536)">
<path d="M102.675 1.10337C102.575 1.19128 102.5 1.65276 102.5 2.11424V2.9493H101.375C100.575 2.9493 100.25 3.0372 100.25 3.25695C100.25 3.63053 100.8 3.82831 101.75 3.82831C102.425 3.82831 102.475 3.87226 102.425 4.70732C102.4 5.16881 102.475 5.63029 102.55 5.71819C102.9 6.02584 103.25 5.52041 103.25 4.68535V3.82831H104.325C105.525 3.82831 105.775 3.71844 105.575 3.25695C105.5 3.05918 105.05 2.9493 104.375 2.9493H103.275L103.325 2.04831C103.375 1.19128 103.075 0.773744 102.675 1.10337Z" fill="white"/>
<path d="M54.075 3.93845C53.25 4.2461 53.05 4.57573 53.475 4.79548C53.6 4.86141 54.175 4.77351 54.775 4.59771C56.125 4.1582 56.975 4.334 57.9 5.16906C59 6.2019 59.9 6.53153 61.1 6.37771C62.35 6.2019 64.75 5.03721 64.75 4.59771C64.75 4.13622 64.5 4.18017 62.875 4.92734C60.85 5.87227 60.05 5.80635 58.5 4.59771C57.375 3.71869 57.1 3.60882 56.05 3.60882C55.4 3.63079 54.5 3.76264 54.075 3.93845Z" fill="white"/>
<path d="M82.6 5.78411C80.25 7.0367 81.275 10.4209 84.025 10.4209C86.3 10.4209 87.725 8.77275 86.925 7.05868C86.175 5.47645 84.225 4.9051 82.6 5.78411ZM85.725 6.81695C86.45 7.63003 86.375 8.35522 85.5 9.14633C84.85 9.69571 84.6 9.78361 83.925 9.67374C81.5 9.25621 81.8 6.24559 84.275 6.24559C85 6.24559 85.325 6.37744 85.725 6.81695Z" fill="white"/>
<path d="M31.85 15.0142C30.15 15.9371 29.85 17.9369 31.25 19.1675C32.625 20.3762 34.85 20.2004 35.925 18.7939C36.625 17.871 36.65 16.9041 36 15.9811C35.1 14.6626 33.3 14.245 31.85 15.0142ZM34.875 16.025C36.175 17.1458 35.25 19.2115 33.45 19.2115C32.45 19.2115 31.25 18.1566 31.25 17.2776C31.25 15.6954 33.6 14.8823 34.875 16.025Z" fill="white"/>
<path d="M84.375 16.9478C79.075 17.2554 71.8 18.3762 67.325 19.5628C56.7 22.3976 47.975 28.9243 38.8 40.9228C36.45 43.9994 35.95 44.7685 36.25 44.9223C36.45 45.0542 36.75 45.1421 36.925 45.1421C37.1 45.1421 38.3 43.7357 39.6 41.9996C43.2 37.2749 46.275 33.9127 50 30.6164C57.5 24.0018 64.5 20.7055 72.75 19.8705C78.275 19.3211 84.175 20.7495 87.4 23.4305C89.775 25.4083 89.775 25.2984 87.425 28.2431C84.625 31.7152 84.475 31.891 84.325 31.5833C83.975 30.7702 81.5 28.287 80.25 27.4739C77.925 25.9576 75.825 25.3204 72.9 25.1885C69.9 25.0786 68.25 25.3423 65.825 26.3972C62.775 27.6937 60.275 30.1769 59.025 33.1655C57.95 35.6488 58.075 39.4065 59.3 41.9117C60.075 43.5159 60.45 42.8786 59.75 41.1426C58.95 39.2307 58.775 36.0223 59.375 34.2423C61.05 29.1001 65.975 25.7599 71.875 25.7379C77.825 25.6939 82.5 28.6826 84.5 33.8028C85.05 35.2752 85.6 35.429 85.375 34.0885C85.2 33.0996 85.225 33.0337 87.05 30.8142C88.075 29.5616 89.225 28.1552 89.575 27.6937L90.225 26.8147L90.6 27.5838C91.525 29.5396 91.825 31.1878 91.825 34.3742C91.8 37.0991 91.7 37.8902 91.15 39.7362C90.8 40.9448 90.55 41.9776 90.625 42.0216C90.875 42.2413 91.95 41.8238 92.075 41.4722C92.125 41.2525 92.525 40.0438 92.95 38.7693C94.625 33.7149 95.675 27.9574 95.925 22.2438C96.1 18.3981 96 18.0685 94.425 17.2334C93.7 16.8379 93.2 16.7939 89.625 16.8379C87.425 16.8599 85.075 16.9038 84.375 16.9478ZM94.475 23.1228C94.3 25.7159 93.6 31.2757 93.4 31.847C93.35 31.9569 93.25 31.6712 93.15 31.1878C93.05 30.7043 92.575 29.21 92.1 27.8475L91.2 25.3863L92.2 23.892C92.75 23.0789 93.5 21.8702 93.85 21.233C94.225 20.5737 94.575 20.0902 94.6 20.1342C94.65 20.1562 94.575 21.5186 94.475 23.1228Z" fill="white"/>
<path d="M47.625 18.8154C46.3 19.4308 46.075 20.8591 47.15 21.6063C48.825 22.771 50.875 21.3426 50.1 19.5406C49.95 19.211 48.75 18.5517 48.325 18.5517C48.225 18.5517 47.9 18.6836 47.625 18.8154ZM49.1 19.7824C49.575 20.1999 49.6 20.3317 49.175 20.8372C48.65 21.4745 47.65 21.2108 47.55 20.4416C47.425 19.4967 48.35 19.1011 49.1 19.7824Z" fill="white"/>
<path d="M111.775 22.6393C111.475 22.969 111.25 23.3865 111.25 23.6063C111.25 24.3534 112.225 25.1445 113.125 25.1445C114.025 25.1445 115 24.3534 115 23.6063C115 22.8591 114.025 22.068 113.125 22.068C112.525 22.068 112.15 22.2218 111.775 22.6393ZM113.825 23.1887C114.2 23.7161 113.85 24.2655 113.15 24.2655C112.425 24.2655 112.05 23.5403 112.525 23.0349C112.9 22.6393 113.475 22.7053 113.825 23.1887Z" fill="white"/>
<path d="M70.125 26.705C69.875 27.0346 70.15 27.2104 70.625 27.0346C70.85 26.9687 70.95 26.8149 70.875 26.683C70.675 26.3973 70.325 26.3973 70.125 26.705Z" fill="white"/>
<path d="M72.325 26.617C71.625 26.8367 72.075 27.0785 73.45 27.2103C74.225 27.2982 75.55 27.6059 76.375 27.9135C78.225 28.6167 79 28.7706 79 28.4849C79 27.8256 73.4 26.2654 72.325 26.617Z" fill="white"/>
<path d="M68.55 29.5615C66.8 30.1548 64.475 32.0667 63.6 33.6269C63.125 34.484 62.9 35.2751 62.825 36.4178L62.725 38L63.275 37.3407C64.35 36.0881 65.65 35.0553 66.35 34.9015C66.725 34.8136 67.475 34.8795 68 35.0333C68.75 35.2531 69.125 35.2531 69.9 35.0114C70.475 34.8356 71.925 34.7257 73.375 34.7257C75.45 34.7477 76.175 34.8356 77.6 35.319C79.175 35.8244 79.4 35.8464 80.025 35.5607C81.075 35.0993 81.1 34.9015 80.4 33.6269C79.525 32.0447 77.775 30.5504 75.875 29.7593C74.475 29.1659 74.05 29.1 72.1 29.122C70.5 29.122 69.5 29.2538 68.55 29.5615Z" fill="white"/>
<path d="M28.175 32.9898C28.075 33.0557 28 33.4512 28 33.8248C28 34.4841 27.925 34.55 26.975 34.6599C26.425 34.7258 25.9 34.8357 25.825 34.8796C25.525 35.1653 26.1 35.473 26.875 35.473C27.7 35.473 27.725 35.4949 27.8 36.3959C27.9 37.6925 28.6 37.7144 28.7 36.4179C28.775 35.4949 28.775 35.4949 29.825 35.429C31.125 35.3411 31.1 34.9675 29.825 34.8137C28.9 34.7038 28.875 34.6599 28.8 33.7589C28.725 32.8799 28.55 32.6601 28.175 32.9898Z" fill="white"/>
<path d="M104 34.5282C104 35.5611 104.7 36.9015 105.7 37.9344C106.3 38.5057 106.4 38.7694 106.2 38.9453C105.975 39.143 106.05 39.209 106.55 39.209C106.9 39.209 107.675 39.3628 108.25 39.5386C109.775 40.0001 110.65 39.9561 111.1 39.3848C112.275 37.9344 110.4 36.9235 108.1 37.7806C107.25 38.0882 107.175 38.0662 106.625 37.5828C105.875 36.9235 105.125 35.583 104.9 34.5282C104.8 34.0228 104.575 33.7151 104.375 33.7151C104.1 33.7151 104 33.9569 104 34.5282ZM110.5 38.6596C110.5 39.0112 109.425 39.1211 108.65 38.8574C107.975 38.6376 108.475 38.3299 109.525 38.3299C110.225 38.3299 110.5 38.4178 110.5 38.6596Z" fill="white"/>
<path d="M12.425 37.0551C11.35 37.9781 10.475 39.3186 9.59998 41.3623C9.04998 42.7028 8.87498 42.9005 8.57498 42.6808C7.84998 42.1754 7.44998 41.1425 7.57498 40.1756C7.64998 39.4285 7.59998 39.2746 7.32498 39.3625C6.87498 39.5164 6.24998 40.5931 6.24998 41.2085C6.24998 41.648 7.42498 42.8126 8.32498 43.2741C8.72498 43.4719 8.67498 43.7136 7.67498 46.3507C6.02498 50.5919 5.74998 51.1193 5.27498 50.9655C4.39998 50.6798 1.82498 50.5919 1.29998 50.8336C0.44998 51.2292 0.57498 52.2181 1.54998 52.9433C2.22498 53.4487 2.52498 53.5146 3.39998 53.4267C3.99998 53.3828 4.79998 53.0971 5.27498 52.7675L6.07498 52.2181L7.94998 52.9872C10.65 54.064 12.4 54.4376 13.425 54.1299C14.175 53.9102 15 53.207 15 52.7894C15 52.6796 14.3 52.6136 13.425 52.6136C12 52.6136 9.07498 52.0862 7.42498 51.5368L6.82498 51.3391L7.69998 49.7568C8.14998 48.8998 8.94998 47.1857 9.47498 45.9551L10.375 43.7136L11.725 43.5378C14.7 43.1643 16.75 41.1425 16.75 38.5494C16.75 37.0331 16 36.3519 14.4 36.3519C13.475 36.3519 13.125 36.4838 12.425 37.0551ZM15.25 37.121C15.45 37.3408 15.525 37.8023 15.425 38.4396C15.05 40.725 12.8 43.1643 11.025 43.1643C10.525 43.1643 10.55 43.1203 11.15 41.6699C12.275 39.0329 13.075 37.6485 13.7 37.2089C14.45 36.7035 14.825 36.6815 15.25 37.121ZM4.59998 51.7346C4.97498 52.0862 3.89998 52.8334 3.02498 52.8334C2.22498 52.8334 1.09998 51.9104 1.37498 51.4929C1.59998 51.1852 4.17498 51.361 4.59998 51.7346Z" fill="white"/>
<path d="M66.45 36.5937C64.975 37.3408 61.925 42.4391 60.4 46.6584C59.325 49.669 58.55 50.8776 57.2 51.7347C54.975 53.163 53.1 53.0312 52.65 51.449C52.175 49.8228 53.9 46.6803 55.8 45.7134C57.325 44.9443 57.575 45.6035 56.6 47.7132C56.4 48.1307 57.375 48.0648 57.85 47.6472C58.35 47.2077 58.35 46.043 57.85 45.4058C57 44.329 54.125 45.0761 52.65 46.7682C52.3 47.2077 51.65 48.1747 51.275 48.9658C50.375 50.7018 48.925 52.1742 48.1 52.1742C47.225 52.1742 47.125 51.3611 47.775 49.603C48.7 47.01 47.95 45.5596 45.825 45.9112C45.075 46.0211 44.475 46.4166 43.025 47.7132C42.025 48.6361 41.25 49.1855 41.35 48.9658C41.725 47.823 41.925 46.7023 41.75 46.4606C41.625 46.2848 41.3 46.2408 40.9 46.3287C40.425 46.4386 40.2 46.6803 40 47.4055C39.425 49.2954 39.2 49.7349 38.25 50.7018C37.175 51.7566 35.775 52.4818 35.15 52.2621C34.5 52.0423 34.675 50.5919 35.525 48.6142C36.275 46.9001 36.3 46.8122 35.85 46.5265C35.6 46.3727 35.35 46.2408 35.275 46.2408C35.2 46.2408 34.575 47.1638 33.925 48.3065C32.425 50.8556 31.425 51.9544 30.625 51.9544C30.3 51.9544 29.95 51.8226 29.85 51.6907C29.425 51.0974 29.725 49.1196 30.45 47.5593C31.075 46.2848 31.15 45.9771 30.85 45.8672C30.25 45.6695 29.775 45.9771 29.35 46.8342C27.95 49.647 27.4 50.4601 26.325 51.2951C24.1 53.0092 23.025 52.0203 24.4 49.4932C25.025 48.3285 25.05 48.1747 24.7 47.867C24.35 47.5374 24.175 47.6692 22.8 49.2514C20.975 51.3611 19.675 52.3939 18.875 52.3939C18.3 52.3939 18.25 52.306 18.25 51.3391C18.25 50.1085 18.925 48.768 20.275 47.1858C22.15 44.9882 24.5 44.6586 24.5 46.6144C24.5 47.4055 24.75 47.5154 25.35 46.988C25.925 46.4826 25.85 46.065 25.025 45.3398C24.475 44.8784 24.05 44.7026 23.375 44.7026C20.475 44.7026 16.45 48.5922 16.45 51.427C16.45 52.7235 17 53.2729 18.3 53.2729C19.125 53.2729 19.475 53.0971 20.65 52.1522C21.7 51.2512 22 51.0974 22 51.427C22 52.9433 24.4 53.3828 26.1 52.1961C26.6 51.8445 27.2 51.3391 27.475 51.0534L27.925 50.57L28.275 51.5369C28.95 53.4267 30.9 53.3828 32.425 51.449L33.125 50.548L33.2 51.427C33.3 52.4818 33.55 52.7455 34.525 52.9213C35.425 53.0751 36.55 52.7016 37.725 51.8226C38.4 51.3391 38.55 51.2732 38.425 51.6028C38.2 52.0863 38.625 52.6137 39.225 52.6137C39.45 52.6137 40.275 51.7347 41.125 50.6139C43.3 47.7351 44.9 46.6364 45.9 47.3616C46.225 47.6033 46.275 47.889 46.125 48.8779C46.025 49.5371 45.95 50.57 45.925 51.1853C45.875 52.1742 45.925 52.306 46.6 52.5697C47.675 53.0312 49 52.6137 50.1 51.4709L51 50.548V51.2072C51 52.5477 52.15 53.4927 53.725 53.4927C55.325 53.4707 56.8 52.8334 58.25 51.4929L59.5 50.3502V51.1413C59.5 52.1742 59.975 53.0532 60.525 53.0532C60.825 53.0532 61.225 52.5917 61.75 51.5588C63.975 47.3835 64.25 47.0319 65.425 47.1638C66.325 47.2517 66.425 47.867 65.875 50.0645C65.275 52.3939 65.875 53.0971 68.15 52.7235C69.15 52.5697 70.925 51.1413 71.625 49.9766C72.325 48.79 71.9 48.79 71.025 49.9547C70.05 51.2951 68.825 52.1742 67.925 52.1742C67.325 52.1742 67.25 52.0863 67.25 51.449C67.25 51.0314 67.475 50.1305 67.775 49.4053C68.65 47.2077 68.025 45.8013 66.2 45.8013C64.775 45.8013 63.5 46.944 62.1 49.4053L60.975 51.405L61.125 50.0865C61.45 47.2737 61.675 46.8342 63.5 45.164C65.625 43.2522 67.525 40.1317 67.7 38.2198C67.775 37.4507 67.7 36.9013 67.5 36.6816C67.15 36.308 67.025 36.286 66.45 36.5937ZM66.9 38.923C66.425 40.6591 62.8 45.8233 62.55 45.1421C62.4 44.7685 64.2 41.4282 65.375 39.868C66.6 38.2638 67.175 37.8902 66.9 38.923Z" fill="white"/>
<path d="M81.175 36.8135C79.75 37.4728 78.75 38.8353 78.75 40.1098C78.75 40.9449 78.875 41.2306 79.3 41.4943C80.15 42.0217 80.25 41.9338 80.25 40.6812C80.275 38.3958 81.225 37.0113 82.8 37.0113C84.025 37.0113 84.25 37.4508 84.25 40.0439C84.25 42.1316 83.85 43.7797 82.25 48.4165C80.725 52.8775 80.95 54.1521 83.275 54.1521C84.575 54.1521 85.65 53.5807 87.2 52.0424L88.4 50.8558L88.3 52.1523C88.2 53.361 88.225 53.4708 88.875 53.8444C90.8 54.9432 93.475 53.4928 96.55 49.6471C100.35 44.9444 102.375 38.8573 100.625 37.341C99.9 36.6817 99.725 36.6597 99 37.1871L98.425 37.6047L98.975 38.2639C100.075 39.5605 99.85 41.8019 98.225 45.318C96.475 49.1856 92.7 53.4928 91.05 53.4928C90.625 53.4928 90.25 53.361 90.175 53.1632C89.9 52.5479 90.525 50.1745 91.625 47.6913C92.8 45.0763 92.95 44.3071 92.45 43.8676C92 43.4721 91.25 43.538 91.25 43.9775C91.25 44.7027 89.6 47.9111 88.375 49.6691C86.725 51.9985 85.025 53.4928 84 53.4928C83.275 53.4928 83.25 53.4708 83.25 52.4819C83.25 51.9106 83.775 49.8889 84.5 47.8012C86.125 43.0326 86.3 42.2634 86.3 40.2856C86.325 38.4837 85.85 37.2531 84.9 36.6817C84.175 36.2202 82.3 36.2861 81.175 36.8135Z" fill="white"/>
<path d="M105.5 40.9011C104.925 41.0989 104.25 41.6702 104.25 41.9779C104.25 42.8569 106.2 42.747 106.75 41.846C107.225 41.0769 106.525 40.5715 105.5 40.9011Z" fill="white"/>
<path d="M76.625 42.8346C75 43.9993 71.525 44.4168 69.375 43.6916C67.625 43.0983 67.55 43.0983 67.25 43.5817C67 44.0212 67.075 44.1091 68.425 44.6585C69.675 45.1639 70.175 45.2518 72.125 45.2299C74.55 45.2079 76.025 44.8123 77.7 43.6696C78.5 43.1422 78.525 43.0983 78.1 42.7027C77.575 42.1753 77.55 42.1753 76.625 42.8346Z" fill="white"/>
<path d="M110.575 43.8674C110.425 44.0212 110.25 44.4827 110.15 44.9002C109.925 45.955 108.65 47.6471 107.35 48.5701C106.775 48.9876 106.175 49.6029 106.05 49.9326C105.75 50.7017 104.375 51.8884 103.6 52.0422C102.5 52.2839 102 51.8444 102 50.6138C102 49.7128 102.225 49.1195 103.275 47.3395C104.45 45.4056 104.625 44.7024 104 44.7024C103.875 44.7024 103.45 44.9661 103.025 45.2738C101.625 46.3066 99.95 50.2402 100.35 51.5807C100.775 53.097 102.675 53.2948 104.725 52.0642L105.975 51.295L106.275 51.8005C106.8 52.7014 107.575 53.2728 108.45 53.4047C109.7 53.6244 111.125 53.1629 111.925 52.2839C112.3 51.8664 112.925 51.4708 113.3 51.4049C113.65 51.317 114.1 51.1192 114.275 50.9434C114.7 50.4819 115 50.5698 115 51.1852C115 51.4928 115.325 52.0422 115.7 52.4158C117.125 53.8222 120 53.4486 122.3 51.5587C123.525 50.5698 124.65 49.1634 124.425 48.9656C124.375 48.8997 123.95 49.2733 123.5 49.8007C123.05 50.3281 122.375 50.9654 122.025 51.2511C119.575 53.1629 116.725 53.0091 116.65 50.9874C116.625 50.1523 116.625 50.1303 118.075 49.7128C120.775 48.9437 122.55 47.6251 122.85 46.1528C123.2 44.5706 122.05 43.9333 120.05 44.5926C118.325 45.1859 116.65 46.6802 115.575 48.636C114.925 49.7568 114.35 50.46 113.75 50.8116L112.875 51.317L112.7 50.0205C112.6 49.2953 112.3 48.0427 112.025 47.2296C111.725 46.4165 111.5 45.2738 111.5 44.6805C111.5 43.5817 111.125 43.2521 110.575 43.8674ZM121.75 45.5814C121.75 46.2627 121.125 47.2076 120.225 47.8669C119.375 48.5042 117.025 49.6249 116.85 49.4711C116.625 49.2733 118.15 47.0318 119.15 46.1308C119.95 45.3837 120.425 45.1419 121 45.1419C121.6 45.1419 121.75 45.2298 121.75 45.5814ZM110.725 47.9548C111.025 49.2293 111.1 50.9214 110.85 51.1412C110.45 51.4928 108 49.8007 108 49.1854C108 48.7679 110.075 46.4385 110.275 46.6363C110.375 46.7242 110.575 47.3175 110.725 47.9548ZM110.125 51.4269C110.85 51.5807 110.875 51.6686 110.325 52.218C109.7 52.8333 108.4 52.7454 107.775 52.0422C107.275 51.4928 107.075 50.2182 107.4 49.9106C107.5 49.8227 108 50.1084 108.525 50.5259C109.05 50.9434 109.775 51.339 110.125 51.4269Z" fill="white"/>
<path d="M27.25 44.9881C27.25 45.142 27.325 45.4936 27.425 45.7792L27.575 46.2847L27.9 45.7792C28.35 45.076 28.325 44.9881 27.75 44.8563C27.45 44.7903 27.25 44.8563 27.25 44.9881Z" fill="white"/>
<path d="M80.85 45.6036C80 46.4386 77.675 47.6253 75.875 48.1307C74.275 48.5702 73.45 49.0977 74.325 49.0977C76.175 49.0977 80.8 46.9441 81.25 45.8893C81.6 45.1201 81.45 45.0322 80.85 45.6036Z" fill="white"/>
<path d="M86.95 48.2189C86.15 49.3836 85.5 50.4384 85.5 50.5483C85.525 50.768 86.375 49.6033 87.675 47.6036C89.1 45.3841 88.525 45.8675 86.95 48.2189Z" fill="white"/>
<path d="M41.95 53.4707C41.45 53.5586 40.85 53.7784 40.625 53.9322C40.375 54.13 39.8 54.174 38.85 54.0861C37.925 53.9981 37.2 54.0641 36.625 54.2838C35.525 54.6794 34.8 54.6794 33.425 54.2619C32.425 53.9762 32.2 53.9762 31.425 54.2619C30.925 54.4377 30.225 54.5915 29.9 54.5915C29.325 54.5915 28.925 55.2068 25.45 61.3159L21.625 68.0404L19.375 68.7656C18.125 69.1391 16.05 69.9522 14.75 70.5456C13.45 71.1389 12.275 71.6443 12.175 71.6883C12.05 71.7322 12.025 71.4465 12.1 71.051C13.05 65.9967 13.375 64.5243 14 62.8981C14.8 60.8325 16.2 58.2833 17.6 56.3495L18.475 55.1409L17.3 54.7893C16.15 54.4596 16.1 54.4596 15.475 54.9651C14.7 55.5804 13.125 59.8216 12.1 63.931C11.5 66.4142 10.25 73.1386 10.25 73.9737C10.25 74.2814 10.675 74.1056 12.2 73.2485C14.175 72.1058 17.1 70.7873 19.45 69.9962C20.925 69.4907 20.975 69.5567 20.375 71.051C20.025 71.93 20.1 73.2705 20.5 73.2705C20.6 73.2705 21.1 73.1167 21.575 72.9409C22.975 72.4354 24.7 72.5233 26.225 73.1826C27.825 73.8858 28.875 75.0725 29.275 76.6767C29.55 77.7315 29.525 78.0172 29.05 79.2478C28.775 80.0169 28.6 80.7201 28.675 80.83C28.825 81.0278 30.975 80.8959 31.95 80.6322C32.35 80.5223 32.5 80.5663 32.5 80.7861C32.5 81.4014 29.725 85.9283 28.25 87.7303L26.775 89.5322H27.7C29.45 89.5322 37.625 88.6312 40.8 88.0819C49.35 86.6315 55.725 84.2582 59.65 81.1157L61.25 79.8191V78.0391C61.25 76.0174 60.8 73.9737 59.85 71.4465C59.5 70.5016 59.25 69.6885 59.275 69.6665C59.325 69.6226 60.325 69.1172 61.5 68.5458C64.675 66.9636 69.85 64.1507 72.125 62.7663C75.75 60.5688 81.75 56.1517 81.75 55.6902C81.75 55.6023 81.5 55.4485 81.2 55.3167C80.7 55.1189 80.4 55.2727 78.75 56.6352C75.025 59.6678 69.025 63.3377 61.975 66.8977C55.125 70.3478 37.2 77.8633 35.55 77.9512C35.025 77.9952 33.95 77.0942 29.225 72.7431L23.525 67.491L27.075 61.3159L30.625 55.1409L36 55.009C40.55 54.8991 45.375 54.5256 45.725 54.2399C45.775 54.1959 45.55 53.9762 45.225 53.7344C44.6 53.273 43.625 53.207 41.95 53.4707ZM24.475 70.128L25.725 71.4026L24.3 71.4685C23.5 71.5125 22.625 71.4465 22.325 71.3586L21.825 71.1828L22.325 70.0182C22.6 69.4028 22.9 68.8754 23.025 68.8754C23.125 68.8754 23.775 69.4468 24.475 70.128ZM58.325 71.3367C59.05 72.9628 59.725 75.6658 59.9 77.4238L60.05 79.094L58.8 80.1268C56.75 81.8189 53.575 83.4451 50.075 84.5878C48.1 85.247 48.15 85.2031 51.15 83.4011C52.425 82.654 54.425 81.2475 55.625 80.2586L57.825 78.4567L57.675 76.2372C57.575 74.9626 57.3 73.4023 57 72.5453C56.475 71.0949 56.475 71.029 56.925 70.7214C57.65 70.2379 57.9 70.3478 58.325 71.3367ZM55.625 72.9189C56.05 74.1935 56.5 76.369 56.5 77.1821C56.5 78.2809 51.725 81.9288 47.55 83.9944C45.15 85.2031 41.7 86.4557 39.375 86.9831C37.45 87.4446 29.75 88.2796 29.75 88.0379C29.75 87.994 30.1 87.5105 30.525 86.9831C30.95 86.4337 31.9 84.8295 32.65 83.4231C33.4 82.0167 34.15 80.6103 34.325 80.3246C34.55 79.907 35.8 79.3357 39.625 77.8853C44.9 75.8856 50.6 73.5782 53.125 72.4354C53.95 72.0619 54.75 71.7542 54.925 71.7322C55.1 71.7322 55.4 72.2596 55.625 72.9189Z" fill="white"/>
<path d="M88.5 56.3273C88.5 56.8987 88.4 56.9866 87.7 57.0525C87.175 57.0965 86.875 57.2283 86.875 57.4481C86.875 57.6678 87.175 57.7997 87.7 57.8436C88.425 57.9095 88.5 57.9755 88.5 58.6787C88.5 59.294 88.6 59.4478 88.95 59.3819C89.225 59.3379 89.4 59.0742 89.45 58.5908C89.525 57.9535 89.6 57.8876 90.4 57.8876C91.1 57.8876 91.275 57.7997 91.2 57.492C91.15 57.2503 90.85 57.0965 90.3 57.0525C89.6 56.9866 89.5 56.8987 89.5 56.3273C89.5 55.8439 89.375 55.69 89 55.69C88.625 55.69 88.5 55.8439 88.5 56.3273Z" fill="white"/>
<path d="M97.1 61.6234C96.925 61.7772 96.9 62.2607 97.025 62.9858C97.4 64.9856 96.7 66.4799 95.3 66.7876C93.6 67.1612 92.5 68.5236 92.5 70.2817C92.5 71.71 93.15 71.6881 93.4 70.2377C93.65 68.6335 94.05 68.15 95.7 67.4908C97.65 66.6997 98.1 65.9086 97.95 63.5133C97.875 61.8212 97.575 61.2058 97.1 61.6234Z" fill="white"/>
<path d="M22.25 73.9076C20.3 74.457 19.2 75.358 18.025 77.4237C16.875 79.4454 15.45 83.8624 15.85 84.2141C16.15 84.4558 20.8 83.5987 22.7 82.9395C26.525 81.621 28.2 79.9289 27.95 77.6215C27.675 75.2042 24.65 73.2484 22.25 73.9076ZM24.325 75.7755C25.525 76.215 26.075 77.0721 25.925 78.2587C25.775 79.4234 25.375 79.841 23.55 80.698C22.125 81.3792 18.525 82.3681 18.275 82.1704C18.025 81.9286 19.425 78.5884 20.3 77.4017C21.625 75.5997 22.7 75.1602 24.325 75.7755Z" fill="white"/>
<path d="M63.175 84.3901C63.075 84.478 63 84.9834 63 85.5108V86.4557H61.75C60.025 86.4557 60.025 87.0051 61.725 87.2029L62.975 87.3567L63.05 88.3896C63.15 89.6641 63.55 89.6641 63.825 88.3676C64.025 87.4227 64.1 87.3787 65.05 87.2688C65.6 87.2029 66.1 87.093 66.175 87.0491C66.5 86.7634 65.875 86.4557 65 86.4557H64.025L63.95 85.4229C63.875 84.456 63.575 84.0604 63.175 84.3901Z" fill="white"/>
</g>
<defs>
<clipPath id="clip0_757_536">
<rect width="124" height="89" fill="white" transform="translate(0.5 0.751953)"/>
</clipPath>
</defs>
</svg>
