<svg width="19" height="18" viewBox="0 0 19 18" fill="none" xmlns="http://www.w3.org/2000/svg">
<path d="M7.5435 4.42877C7.0236 4.42877 6.5369 4.52838 6.08337 4.7276C5.61879 4.92682 5.21505 5.19521 4.87214 5.53278C4.52923 5.87034 4.26376 6.27155 4.07571 6.73639C3.8766 7.19017 3.77705 7.67714 3.77705 8.19733C3.77705 8.72858 3.8766 9.22109 4.07571 9.67487C4.26376 10.1286 4.52923 10.5271 4.87214 10.8702C5.21505 11.2133 5.61879 11.4844 6.08337 11.6837C6.5369 11.8829 7.0236 11.9825 7.5435 11.9825C8.06339 11.9825 8.55562 11.8829 9.02021 11.6837C9.47373 11.4844 9.87195 11.2133 10.2149 10.8702C10.5578 10.5271 10.8288 10.1286 11.0279 9.67487C11.227 9.22109 11.3265 8.72858 11.3265 8.19733C11.3265 7.67714 11.227 7.19017 11.0279 6.73639C10.8288 6.27155 10.5578 5.87034 10.2149 5.53278C9.87195 5.19521 9.47373 4.92682 9.02021 4.7276C8.55562 4.52838 8.06339 4.42877 7.5435 4.42877ZM1.88553 8.19733C1.88553 7.42259 2.03486 6.69212 2.33352 6.00592C2.63218 5.30865 3.03593 4.70546 3.54476 4.19635C4.05359 3.68724 4.65091 3.28326 5.33672 2.98444C6.0336 2.68561 6.76919 2.53619 7.5435 2.53619C8.32886 2.53619 9.06445 2.68561 9.75027 2.98444C10.4361 3.28326 11.0362 3.68724 11.5505 4.19635C12.0649 4.70546 12.4714 5.30865 12.7701 6.00592C13.0687 6.69212 13.2181 7.42259 13.2181 8.19733C13.2181 8.98313 13.0687 9.71914 12.7701 10.4053C12.4714 11.0915 12.0649 11.692 11.5505 12.2066C11.0362 12.7213 10.4361 13.128 9.75027 13.4268C9.06445 13.7256 8.32886 13.8751 7.5435 13.8751C6.76919 13.8751 6.0336 13.7256 5.33672 13.4268C4.65091 13.128 4.05359 12.7213 3.54476 12.2066C3.03593 11.692 2.63218 11.0915 2.33352 10.4053C2.03486 9.71914 1.88553 8.98313 1.88553 8.19733ZM14.4293 16.4317L12.5378 14.5391C12.3608 14.351 12.2723 14.1269 12.2723 13.8668C12.2723 13.6067 12.3608 13.3881 12.5378 13.211C12.7258 13.0228 12.9498 12.9288 13.2098 12.9288C13.4697 12.9288 13.6937 13.0228 13.8817 13.211L15.7733 15.087C15.9503 15.2751 16.0387 15.4992 16.0387 15.7593C16.0387 16.0194 15.9503 16.2436 15.7733 16.4317C15.5852 16.6088 15.3612 16.6973 15.1013 16.6973C14.8413 16.6973 14.6173 16.6088 14.4293 16.4317Z" fill="white"/>
</svg>
