<svg width="17" height="17" viewBox="0 0 17 17" fill="none" xmlns="http://www.w3.org/2000/svg">
<g clip-path="url(#clip0_757_569)">
<path d="M3.8125 2.71436C3.8125 3.17269 3.65365 3.56331 3.33594 3.88623C3.01823 4.20915 2.63021 4.37061 2.17188 4.37061C1.71354 4.37061 1.32292 4.20915 1 3.88623C0.677083 3.56331 0.515625 3.17269 0.515625 2.71436C0.515625 2.25602 0.677083 1.86279 1 1.53467C1.32292 1.20654 1.71354 1.04248 2.17188 1.04248C2.63021 1.04248 3.01823 1.20654 3.33594 1.53467C3.65365 1.86279 3.8125 2.25602 3.8125 2.71436ZM3.82812 5.71436H0.5V16.3706H3.82812V5.71436ZM9.15625 5.71436H5.84375V16.3706H9.15625V10.7769C9.15625 9.99561 9.36458 9.40186 9.78125 8.99561C10.1979 8.57894 10.6589 8.36279 11.1641 8.34717C11.6693 8.33154 12.1302 8.52165 12.5469 8.91748C12.9635 9.31331 13.1719 9.93311 13.1719 10.7769V16.3706H16.5V9.62061C16.5 8.30811 16.1823 7.31852 15.5469 6.65186C14.9115 5.98519 14.1797 5.58154 13.3516 5.44092C12.5234 5.30029 11.7031 5.38623 10.8906 5.69873C10.0781 6.02165 9.5 6.50602 9.15625 7.15186V5.71436Z" fill="white"/>
</g>
<defs>
<clipPath id="clip0_757_569">
<rect width="16" height="16" fill="white" transform="matrix(1 0 0 -1 0.5 16.0425)"/>
</clipPath>
</defs>
</svg>
