<svg width="17" height="17" viewBox="0 0 17 17" fill="none" xmlns="http://www.w3.org/2000/svg">
<g clip-path="url(#clip0_757_567)">
<path d="M8.5 0.370605C7.41667 0.370605 6.70312 0.37321 6.35938 0.378418C6.01562 0.383626 5.63021 0.401855 5.20312 0.433105C4.77604 0.443522 4.40885 0.482585 4.10156 0.550293C3.79427 0.618001 3.51562 0.69873 3.26562 0.79248C2.71354 1.00081 2.23698 1.3055 1.83594 1.70654C1.4349 2.10758 1.13021 2.57373 0.921875 3.10498V3.13623C0.807292 3.4279 0.71875 3.73519 0.65625 4.05811C0.59375 4.38102 0.557292 4.71956 0.546875 5.07373C0.526042 5.50081 0.513021 5.88623 0.507812 6.22998C0.502604 6.57373 0.5 7.28727 0.5 8.37061C0.5 9.45394 0.502604 10.1701 0.507812 10.519C0.513021 10.868 0.526042 11.256 0.546875 11.6831C0.567708 12.0998 0.609375 12.4618 0.671875 12.769C0.734375 13.0763 0.817708 13.3602 0.921875 13.6206C1.11979 14.1623 1.42188 14.6362 1.82812 15.0425C2.23438 15.4487 2.70312 15.7508 3.23438 15.9487H3.26562C3.51562 16.0529 3.79427 16.1362 4.10156 16.1987C4.40885 16.2612 4.77604 16.3029 5.20312 16.3237C5.63021 16.3446 6.01562 16.3576 6.35938 16.3628C6.70312 16.368 7.41667 16.3706 8.5 16.3706C9.58333 16.3706 10.2969 16.3706 10.6406 16.3706C10.9844 16.3706 11.3698 16.355 11.7969 16.3237C12.151 16.3133 12.4922 16.2769 12.8203 16.2144C13.1484 16.1519 13.4688 16.0633 13.7812 15.9487H13.7344C14.2865 15.7508 14.763 15.4487 15.1641 15.0425C15.5651 14.6362 15.8698 14.1675 16.0781 13.6362V13.6206C16.1823 13.3706 16.2656 13.0894 16.3281 12.7769C16.3906 12.4644 16.4323 12.0998 16.4531 11.6831C16.474 11.256 16.487 10.868 16.4922 10.519C16.4974 10.1701 16.5 9.45394 16.5 8.37061C16.5 7.28727 16.4974 6.57373 16.4922 6.22998C16.487 5.88623 16.474 5.50081 16.4531 5.07373C16.4427 4.72998 16.4062 4.39144 16.3438 4.05811C16.2812 3.72477 16.1875 3.40186 16.0625 3.08936L16.0781 3.13623C15.8802 2.59456 15.5781 2.12061 15.1719 1.71436C14.7656 1.30811 14.2969 1.00602 13.7656 0.808105L13.7344 0.79248C13.4531 0.688313 13.1484 0.602376 12.8203 0.534668C12.4922 0.46696 12.1562 0.433105 11.8125 0.433105H11.7969C11.3698 0.401855 10.9844 0.383626 10.6406 0.378418C10.2969 0.37321 9.58333 0.370605 8.5 0.370605ZM8.5 1.80811C9.57292 1.80811 10.2734 1.81331 10.6016 1.82373C10.9297 1.83415 11.3073 1.84977 11.7344 1.87061C12.1198 1.88102 12.4271 1.91488 12.6562 1.97217C12.8854 2.02946 13.0729 2.08415 13.2188 2.13623C13.4062 2.20915 13.5729 2.29248 13.7188 2.38623C13.8646 2.47998 14.0052 2.59456 14.1406 2.72998C14.276 2.87581 14.3906 3.01904 14.4844 3.15967C14.5781 3.30029 14.6615 3.46436 14.7344 3.65186C14.7865 3.79769 14.8411 3.98519 14.8984 4.21436C14.9557 4.44352 14.9948 4.75602 15.0156 5.15186C15.0365 5.56852 15.0495 5.94352 15.0547 6.27686C15.0599 6.61019 15.0625 7.30811 15.0625 8.37061C15.0625 9.44352 15.0599 10.1466 15.0547 10.48C15.0495 10.8133 15.0365 11.1883 15.0156 11.605C14.9948 11.9904 14.9583 12.2977 14.9062 12.5269C14.8542 12.756 14.7969 12.9435 14.7344 13.0894C14.6615 13.2769 14.5781 13.4435 14.4844 13.5894C14.3906 13.7352 14.276 13.8758 14.1406 14.0112C14.0052 14.1571 13.8646 14.2743 13.7188 14.3628C13.5729 14.4513 13.4062 14.5373 13.2188 14.6206C13.0833 14.6623 12.901 14.7144 12.6719 14.7769C12.4427 14.8394 12.1302 14.8758 11.7344 14.8862C11.3073 14.9071 10.9271 14.9201 10.5938 14.9253C10.2604 14.9305 9.5625 14.9331 8.5 14.9331C7.42708 14.9331 6.72656 14.9305 6.39844 14.9253C6.07031 14.9201 5.69271 14.9071 5.26562 14.8862C5.00521 14.8862 4.7474 14.8628 4.49219 14.8159C4.23698 14.769 3.98958 14.6987 3.75 14.605L3.78125 14.6206C3.60417 14.5477 3.4375 14.4618 3.28125 14.3628C3.125 14.2638 2.98438 14.1466 2.85938 14.0112C2.73438 13.8862 2.61979 13.7482 2.51562 13.5972C2.41146 13.4461 2.32812 13.2873 2.26562 13.1206V13.0894C2.21354 12.9539 2.15885 12.7716 2.10156 12.5425C2.04427 12.3133 2.00521 12.0008 1.98438 11.605C1.96354 11.1883 1.95052 10.8133 1.94531 10.48C1.9401 10.1466 1.9375 9.44352 1.9375 8.37061C1.9375 7.30811 1.9401 6.61019 1.94531 6.27686C1.95052 5.94352 1.96354 5.56852 1.98438 5.15186C2.00521 4.75602 2.04167 4.44352 2.09375 4.21436C2.14583 3.98519 2.20312 3.79769 2.26562 3.65186C2.33854 3.46436 2.42188 3.30029 2.51562 3.15967C2.60938 3.01904 2.72396 2.87581 2.85938 2.72998C2.99479 2.59456 3.13542 2.47998 3.28125 2.38623C3.42708 2.29248 3.59375 2.20915 3.78125 2.13623C3.91667 2.08415 4.09896 2.02946 4.32812 1.97217C4.55729 1.91488 4.86979 1.88102 5.26562 1.87061C5.69271 1.84977 6.07292 1.83415 6.40625 1.82373C6.73958 1.81331 7.4375 1.80811 8.5 1.80811ZM8.5 11.0425C7.76042 11.0425 7.13021 10.7821 6.60938 10.2612C6.08854 9.7404 5.82812 9.11019 5.82812 8.37061C5.82812 7.64144 6.08854 7.01383 6.60938 6.48779C7.13021 5.96175 7.76042 5.69873 8.5 5.69873C9.23958 5.69873 9.86979 5.96175 10.3906 6.48779C10.9115 7.01383 11.1719 7.64144 11.1719 8.37061C11.1719 9.11019 10.9115 9.7404 10.3906 10.2612C9.86979 10.7821 9.23958 11.0425 8.5 11.0425ZM8.5 4.26123C7.9375 4.26123 7.40625 4.37061 6.90625 4.58936C6.40625 4.80811 5.96875 5.10238 5.59375 5.47217C5.21875 5.84196 4.92708 6.27686 4.71875 6.77686C4.5 7.27686 4.39062 7.80811 4.39062 8.37061C4.39062 8.94352 4.5 9.47998 4.71875 9.97998C4.92708 10.48 5.21875 10.9149 5.59375 11.2847C5.96875 11.6545 6.40625 11.9487 6.90625 12.1675C7.40625 12.3758 7.9375 12.48 8.5 12.48C9.0625 12.48 9.59375 12.3758 10.0938 12.1675C10.5938 11.9487 11.0312 11.6545 11.4062 11.2847C11.7812 10.9149 12.0729 10.48 12.2812 9.97998C12.5 9.47998 12.6094 8.94352 12.6094 8.37061C12.6094 7.80811 12.5 7.27686 12.2812 6.77686C12.0729 6.27686 11.7812 5.84196 11.4062 5.47217C11.0312 5.10238 10.5938 4.80811 10.0938 4.58936C9.59375 4.37061 9.0625 4.26123 8.5 4.26123ZM13.7344 4.10498C13.7344 4.37581 13.6406 4.60238 13.4531 4.78467C13.2656 4.96696 13.0365 5.05811 12.7656 5.05811C12.5052 5.05811 12.2812 4.96696 12.0938 4.78467C11.9062 4.60238 11.8125 4.37581 11.8125 4.10498C11.8125 3.84456 11.9062 3.62061 12.0938 3.43311C12.2812 3.24561 12.5052 3.15186 12.7656 3.15186C13.0365 3.15186 13.2656 3.24561 13.4531 3.43311C13.6406 3.62061 13.7344 3.84456 13.7344 4.10498Z" fill="white"/>
</g>
<defs>
<clipPath id="clip0_757_567">
<rect width="16" height="16" fill="white" transform="matrix(1 0 0 -1 0.5 16.0425)"/>
</clipPath>
</defs>
</svg>
