<svg width="25" height="25" viewBox="0 0 25 25" fill="none" xmlns="http://www.w3.org/2000/svg">
<g clip-path="url(#clip0_757_624)">
<path d="M14.17 22.7523H14.11C13.8899 22.739 13.6804 22.6534 13.514 22.5087C13.3476 22.364 13.2337 22.1684 13.19 21.9523L11.65 14.3823C11.6108 14.1901 11.516 14.0137 11.3773 13.875C11.2386 13.7363 11.0622 13.6415 10.87 13.6023L3.30001 12.0623C3.08348 12.0193 2.88727 11.9058 2.74197 11.7396C2.59666 11.5734 2.51044 11.3638 2.49674 11.1435C2.48304 10.9231 2.54264 10.7045 2.66623 10.5215C2.78983 10.3386 2.97048 10.2018 3.18001 10.1323L19.18 4.80226C19.3596 4.7281 19.5569 4.70787 19.7478 4.74404C19.9387 4.78022 20.115 4.87122 20.255 5.00594C20.395 5.14066 20.4928 5.31325 20.5363 5.50262C20.5798 5.69199 20.5672 5.88993 20.5 6.07226L15.17 22.0723C15.1004 22.2792 14.965 22.4578 14.7844 22.5805C14.6039 22.7033 14.3881 22.7636 14.17 22.7523Z" fill="#C2C2C2"/>
</g>
<defs>
<clipPath id="clip0_757_624">
<rect width="24" height="24" fill="white" transform="translate(0.5 0.751953)"/>
</clipPath>
</defs>
</svg>
