<svg width="193" height="39" viewBox="0 0 193 39" fill="none" xmlns="http://www.w3.org/2000/svg">
<g clip-path="url(#clip0_757_503)">
<path d="M14.7715 13.1243L14.9628 13.8416L14.102 14.4155C13.4325 14.8937 13.0499 15.4676 13.0499 16.1371C13.0499 16.711 13.2412 17.3327 13.5759 18.3848L17.2583 29.9579L20.6059 20.8238L19.506 17.8587C18.8364 15.9937 18.1191 14.7981 17.0192 13.8416L17.2105 13.1243C21.658 13.4112 25.6751 13.4112 30.1226 13.1243L30.3139 13.8416L29.3096 14.4633C28.6401 14.8937 28.3532 15.3241 28.3532 16.0415C28.3532 16.6153 28.5445 17.2849 28.8792 18.2891L32.7051 29.9579L35.7657 21.8759C36.1483 20.8238 36.2918 20.0586 36.2918 19.15C36.2918 17.3805 35.2397 15.7067 32.992 13.8416L33.1833 13.1243C36.3874 13.3634 39.5916 13.3634 42.7957 13.1243L42.987 13.8416C40.8828 15.7545 39.5915 17.7153 38.1569 21.4455L31.7486 38.1834C30.1705 38.0878 28.5445 38.0878 26.9663 38.1834L21.658 23.7888L16.3975 38.1834C14.7715 38.0878 13.0499 38.0878 11.4239 38.1834L3.72442 18.05C2.72014 15.4676 2.19409 14.7981 0.568115 13.8416L0.759407 13.1243C5.49387 13.4112 10.037 13.4112 14.7715 13.1243ZM54.8949 38.9486C46.6693 38.9486 41.4566 33.6881 41.4566 25.7017C41.4566 17.7153 47.0041 12.4548 55.0383 12.4548C62.4987 12.4548 67.6636 16.8066 68.4287 24.0279H51.1647C51.4516 30.0057 54.2732 32.5404 59.2946 32.5404C62.2596 32.5404 65.0811 31.5839 67.281 29.9101L67.9983 30.4361C65.9419 35.6967 61.0162 38.9486 54.8949 38.9486ZM51.1169 22.1628H59.2946C58.912 16.1371 57.286 14.2242 55.0861 14.2242C52.6472 14.2242 51.2125 16.5675 51.1169 22.1628ZM81.5322 13.1243L81.7235 13.8416L80.8627 14.4155C80.1931 14.8937 79.8106 15.4676 79.8106 16.1371C79.8106 16.711 80.0018 17.3327 80.3366 18.3848L84.019 29.9579L87.3666 20.8238L86.2666 17.8587C85.5971 15.9937 84.8798 14.7981 83.7798 13.8416L83.9711 13.1243C88.4187 13.4112 92.4358 13.4112 96.8833 13.1243L97.0746 13.8416L96.0703 14.4633C95.4008 14.8937 95.1139 15.3241 95.1139 16.0415C95.1139 16.6153 95.3052 17.2849 95.6399 18.2891L99.4657 29.9579L102.526 21.8759C102.909 20.8238 103.052 20.0586 103.052 19.15C103.052 17.3805 102 15.7067 99.7527 13.8416L99.944 13.1243C103.148 13.3634 106.352 13.3634 109.556 13.1243L109.748 13.8416C107.643 15.7545 106.352 17.7153 104.918 21.4455L98.5093 38.1834C96.9311 38.0878 95.3052 38.0878 93.727 38.1834L88.4187 23.7888L83.1581 38.1834C81.5322 38.0878 79.8106 38.0878 78.1846 38.1834L70.4851 18.05C69.4808 15.4676 68.9548 14.7981 67.3288 13.8416L67.5201 13.1243C72.2545 13.4112 76.7977 13.4112 81.5322 13.1243ZM122.564 12.4548C130.885 12.4548 136.911 17.7153 136.911 25.7017C136.911 33.6881 130.79 38.9486 122.469 38.9486C114.147 38.9486 108.122 33.6881 108.122 25.7017C108.122 17.7153 114.243 12.4548 122.564 12.4548ZM118.117 24.7452C118.117 32.7795 119.551 37.0835 122.755 37.0835C125.338 37.0835 126.916 34.9793 126.916 26.6581C126.916 18.337 125.481 14.3199 122.277 14.3199C119.695 14.3199 118.117 16.4241 118.117 24.7452ZM137.437 38.2313L137.246 37.5139L139.111 36.5096C140.45 35.7923 140.785 35.1706 140.785 33.5446V19.7238C140.785 17.6196 140.546 17.0936 139.111 16.3762L137.341 15.5154V14.7981L139.78 14.4633C143.128 13.9851 146.571 13.2677 149.249 12.5504L149.488 12.7417V19.2934C150.684 14.6068 153.362 12.4069 156.518 12.4069C159.292 12.4069 161.109 14.1764 161.109 16.5675C161.109 18.9587 159.436 20.5368 157.188 20.5368C155.132 20.5368 154.079 19.4847 152.501 19.4847C150.78 19.4847 149.488 20.4412 149.488 24.0757V33.5925C149.488 35.2184 149.823 35.8401 151.21 36.5096L153.219 37.5139L153.027 38.2313C147.862 37.9443 142.602 37.9443 137.437 38.2313ZM172.396 25.0322L178.565 19.7717C179.808 18.6717 180.286 18.05 180.286 17.2849C180.286 16.5197 179.856 15.9458 178.421 14.9415L176.795 13.8416L176.987 13.1243C181.386 13.4112 186.073 13.4112 190.473 13.1243L190.664 13.8416C187.938 15.085 185.977 16.2806 183.49 18.337L179.808 21.3976L189.42 34.788C190.377 36.0792 191.286 36.7966 192.72 37.5139L192.529 38.2313C187.842 37.9443 182.534 37.9443 177.847 38.2313L177.656 37.5139C179.473 36.7966 179.904 36.414 179.904 35.7923C179.904 35.3619 179.712 35.0271 179.234 34.3098L173.687 26.4669L172.3 27.6146V33.5925C172.3 35.2184 172.635 35.8401 174.022 36.7009L175.361 37.5139L175.169 38.2313C170.483 37.9443 165.126 37.9443 160.44 38.2313L160.249 37.5139L162.114 36.5096C163.453 35.7923 163.787 35.1706 163.787 33.5446V7.7203C163.787 5.6161 163.548 5.09004 162.114 4.3727L160.344 3.51189V2.79455L162.783 2.45979C166.131 1.98156 169.526 1.26422 172.156 0.546875L172.396 0.738166V25.0322Z" fill="black"/>
</g>
<defs>
<clipPath id="clip0_757_503">
<rect width="192.152" height="38.4017" fill="white" transform="translate(0.568115 0.546875)"/>
</clipPath>
</defs>
</svg>
